<svg width="680" height="620" xmlns="http://www.w3.org/2000/svg" viewBox="0 0 680 620">
<rect x="240" y="20" width="200" height="56" rx="8" fill="#F1EFE8" stroke="#5F5E5A" stroke-width="1"/>
<text x="340" y="42" text-anchor="middle" font-family="sans-serif" font-size="14" font-weight="500" fill="#2C2C2A">Team submits PR</text>
<text x="340" y="60" text-anchor="middle" font-family="sans-serif" font-size="12" fill="#5F5E5A">YAML config under configs/</text>
<line x1="340" y1="76" x2="340" y2="106" stroke="#5F5E5A" stroke-width="1.5" marker-end="url(#arrow)"/>

<rect x="220" y="106" width="240" height="56" rx="8" fill="#E1F5EE" stroke="#0F6E56" stroke-width="1"/>
<text x="340" y="128" text-anchor="middle" font-family="sans-serif" font-size="14" font-weight="500" fill="#04342C">CI: validate-configs</text>
<text x="340" y="146" text-anchor="middle" font-family="sans-serif" font-size="12" fill="#0F6E56">Checked against JSON Schema</text>
<line x1="340" y1="162" x2="340" y2="192" stroke="#5F5E5A" stroke-width="1.5" marker-end="url(#arrow)"/>

<rect x="220" y="192" width="240" height="56" rx="8" fill="#E1F5EE" stroke="#0F6E56" stroke-width="1"/>
<text x="340" y="214" text-anchor="middle" font-family="sans-serif" font-size="14" font-weight="500" fill="#04342C">Approval gate</text>
<text x="340" y="232" text-anchor="middle" font-family="sans-serif" font-size="12" fill="#0F6E56">GitHub Environment, required reviewer</text>
<line x1="340" y1="248" x2="340" y2="278" stroke="#5F5E5A" stroke-width="1.5" marker-end="url(#arrow)"/>

<rect x="220" y="278" width="240" height="56" rx="8" fill="#EEEDFE" stroke="#534AB7" stroke-width="1"/>
<text x="340" y="300" text-anchor="middle" font-family="sans-serif" font-size="14" font-weight="500" fill="#26215C">Terraform apply</text>
<text x="340" y="318" text-anchor="middle" font-family="sans-serif" font-size="12" fill="#534AB7">Guardrails: tags, cost cap</text>
<line x1="340" y1="334" x2="340" y2="364" stroke="#5F5E5A" stroke-width="1.5" marker-end="url(#arrow)"/>

<rect x="220" y="364" width="240" height="56" rx="8" fill="#EEEDFE" stroke="#534AB7" stroke-width="1"/>
<text x="340" y="386" text-anchor="middle" font-family="sans-serif" font-size="14" font-weight="500" fill="#26215C">AWS resources created</text>
<text x="340" y="404" text-anchor="middle" font-family="sans-serif" font-size="12" fill="#534AB7">EC2, security group, key pair</text>
<line x1="340" y1="420" x2="340" y2="450" stroke="#5F5E5A" stroke-width="1.5" marker-end="url(#arrow)"/>

<rect x="220" y="450" width="240" height="56" rx="8" fill="#FAECE7" stroke="#993C1D" stroke-width="1"/>
<text x="340" y="472" text-anchor="middle" font-family="sans-serif" font-size="14" font-weight="500" fill="#4A1B0C">Comment posted back</text>
<text x="340" y="490" text-anchor="middle" font-family="sans-serif" font-size="12" fill="#993C1D">Public IP, DNS, SSH command</text>

<defs><marker id="arrow" viewBox="0 0 10 10" refX="8" refY="5" markerWidth="6" markerHeight="6" orient="auto-start-reverse"><path d="M2 1L8 5L2 9" fill="none" stroke="#5F5E5A" stroke-width="1.5"/></marker></defs>

<rect x="30" y="550" width="16" height="16" rx="3" fill="#9FE1CB"/>
<text x="54" y="562" font-family="sans-serif" font-size="12" fill="#2C2C2A">CI checks</text>
<rect x="150" y="550" width="16" height="16" rx="3" fill="#CECBF6"/>
<text x="174" y="562" font-family="sans-serif" font-size="12" fill="#2C2C2A">Terraform / AWS</text>
<rect x="310" y="550" width="16" height="16" rx="3" fill="#F5C4B3"/>
<text x="334" y="562" font-family="sans-serif" font-size="12" fill="#2C2C2A">Feedback to team</text>
</svg>
